<mxfile host="app.diagrams.net" agent="Mozilla/5.0 (X11; Ubuntu; Linux x86_64; rv:129.0) Gecko/20100101 Firefox/129.0" version="26.0.11">
  <diagram name="PÃ¡gina-1" id="cXO6ZosCLriE8Fw_zkxO">
    <mxGraphModel dx="1524" dy="687" grid="0" gridSize="10" guides="0" tooltips="1" connect="1" arrows="1" fold="1" page="1" pageScale="1" pageWidth="827" pageHeight="1169" math="0" shadow="0">
      <root>
        <mxCell id="0" />
        <mxCell id="1" parent="0" />
        <mxCell id="rNuUCdMT_7H_DOtV4EFp-11" value="" style="rounded=0;whiteSpace=wrap;html=1;shadow=0;" parent="1" vertex="1">
          <mxGeometry x="290" y="290" width="90" height="80" as="geometry" />
        </mxCell>
        <mxCell id="rNuUCdMT_7H_DOtV4EFp-1" value="" style="rounded=0;whiteSpace=wrap;html=1;" parent="1" vertex="1">
          <mxGeometry x="160" y="160" width="320" height="240" as="geometry" />
        </mxCell>
        <mxCell id="rNuUCdMT_7H_DOtV4EFp-21" value="" style="endArrow=none;html=1;rounded=0;entryX=0.002;entryY=0.415;entryDx=0;entryDy=0;entryPerimeter=0;strokeWidth=2;" parent="1" edge="1">
          <mxGeometry width="50" height="50" relative="1" as="geometry">
            <mxPoint x="480" y="360.25" as="sourcePoint" />
            <mxPoint x="547.9" y="359.9999999999998" as="targetPoint" />
          </mxGeometry>
        </mxCell>
        <mxCell id="rNuUCdMT_7H_DOtV4EFp-23" value="" style="endArrow=none;html=1;rounded=0;strokeWidth=2;" parent="1" edge="1">
          <mxGeometry width="50" height="50" relative="1" as="geometry">
            <mxPoint x="433" y="360" as="sourcePoint" />
            <mxPoint x="432.53" y="255" as="targetPoint" />
          </mxGeometry>
        </mxCell>
        <mxCell id="rNuUCdMT_7H_DOtV4EFp-25" value="" style="endArrow=none;html=1;rounded=0;strokeWidth=2;" parent="1" edge="1">
          <mxGeometry width="50" height="50" relative="1" as="geometry">
            <mxPoint x="394.72999999999996" y="342.5" as="sourcePoint" />
            <mxPoint x="394.72999999999996" y="207.5" as="targetPoint" />
          </mxGeometry>
        </mxCell>
        <mxCell id="rNuUCdMT_7H_DOtV4EFp-26" value="" style="endArrow=none;html=1;rounded=0;entryX=0.002;entryY=0.415;entryDx=0;entryDy=0;entryPerimeter=0;strokeWidth=2;" parent="1" edge="1">
          <mxGeometry width="50" height="50" relative="1" as="geometry">
            <mxPoint x="327.29999999999995" y="341.98" as="sourcePoint" />
            <mxPoint x="395.19999999999993" y="341.7299999999998" as="targetPoint" />
          </mxGeometry>
        </mxCell>
        <mxCell id="rNuUCdMT_7H_DOtV4EFp-27" value="" style="endArrow=none;html=1;rounded=0;entryX=0.002;entryY=0.415;entryDx=0;entryDy=0;entryPerimeter=0;strokeWidth=2;" parent="1" edge="1">
          <mxGeometry width="50" height="50" relative="1" as="geometry">
            <mxPoint x="240.84999999999997" y="342.25" as="sourcePoint" />
            <mxPoint x="308.74999999999994" y="341.9999999999998" as="targetPoint" />
          </mxGeometry>
        </mxCell>
        <mxCell id="rNuUCdMT_7H_DOtV4EFp-28" value="" style="endArrow=none;html=1;rounded=0;entryX=0.002;entryY=0.415;entryDx=0;entryDy=0;entryPerimeter=0;strokeWidth=2;" parent="1" edge="1">
          <mxGeometry width="50" height="50" relative="1" as="geometry">
            <mxPoint x="281.09999999999997" y="224.25" as="sourcePoint" />
            <mxPoint x="348.99999999999994" y="223.99999999999977" as="targetPoint" />
          </mxGeometry>
        </mxCell>
        <mxCell id="rNuUCdMT_7H_DOtV4EFp-30" value="" style="endArrow=none;html=1;rounded=0;strokeWidth=2;" parent="1" edge="1">
          <mxGeometry width="50" height="50" relative="1" as="geometry">
            <mxPoint x="241.68999999999997" y="342.5" as="sourcePoint" />
            <mxPoint x="241.68999999999997" y="207.5" as="targetPoint" />
          </mxGeometry>
        </mxCell>
        <mxCell id="rNuUCdMT_7H_DOtV4EFp-32" value="" style="endArrow=none;html=1;rounded=0;strokeWidth=2;" parent="1" edge="1">
          <mxGeometry width="50" height="50" relative="1" as="geometry">
            <mxPoint x="70.10000000000002" y="212" as="sourcePoint" />
            <mxPoint x="70" y="170" as="targetPoint" />
          </mxGeometry>
        </mxCell>
        <mxCell id="rNuUCdMT_7H_DOtV4EFp-12" value="" style="rounded=0;whiteSpace=wrap;html=1;shadow=1;" parent="1" vertex="1">
          <mxGeometry x="275" y="300" width="90" height="80" as="geometry" />
        </mxCell>
        <mxCell id="rNuUCdMT_7H_DOtV4EFp-5" value="" style="sketch=0;pointerEvents=1;shadow=0;dashed=0;html=1;strokeColor=none;labelPosition=center;verticalLabelPosition=bottom;verticalAlign=top;outlineConnect=0;align=center;shape=mxgraph.office.security.lock_protected;fillColor=#2072B8;" parent="1" vertex="1">
          <mxGeometry x="308.75" y="325" width="22.5" height="30" as="geometry" />
        </mxCell>
        <mxCell id="rNuUCdMT_7H_DOtV4EFp-19" value="" style="verticalLabelPosition=bottom;html=1;verticalAlign=top;align=center;strokeColor=none;fillColor=#2072B8;shape=mxgraph.azure.cloud;" parent="1" vertex="1">
          <mxGeometry x="44" y="144" width="50" height="32.5" as="geometry" />
        </mxCell>
        <mxCell id="rNuUCdMT_7H_DOtV4EFp-10" value="" style="rounded=0;whiteSpace=wrap;html=1;shadow=1;" parent="1" vertex="1">
          <mxGeometry x="330" y="185" width="130" height="80" as="geometry" />
        </mxCell>
        <mxCell id="rNuUCdMT_7H_DOtV4EFp-4" value="" style="sketch=0;points=[[0.015,0.015,0],[0.985,0.015,0],[0.985,0.985,0],[0.015,0.985,0],[0.25,0,0],[0.5,0,0],[0.75,0,0],[1,0.25,0],[1,0.5,0],[1,0.75,0],[0.75,1,0],[0.5,1,0],[0.25,1,0],[0,0.75,0],[0,0.5,0],[0,0.25,0]];verticalLabelPosition=bottom;html=1;verticalAlign=top;aspect=fixed;align=center;pointerEvents=1;shape=mxgraph.cisco19.rect;prIcon=firewall;fillColor=#FAFAFA;strokeColor=#2072B8;" parent="1" vertex="1">
          <mxGeometry x="400" y="207.5" width="44.8" height="35" as="geometry" />
        </mxCell>
        <mxCell id="rNuUCdMT_7H_DOtV4EFp-3" value="" style="sketch=0;points=[[0.5,0,0],[1,0.5,0],[0.5,1,0],[0,0.5,0],[0.145,0.145,0],[0.8555,0.145,0],[0.855,0.8555,0],[0.145,0.855,0]];verticalLabelPosition=bottom;html=1;verticalAlign=top;aspect=fixed;align=center;pointerEvents=1;shape=mxgraph.cisco19.rect;prIcon=router;fillColor=#FAFAFA;strokeColor=#2072B8;" parent="1" vertex="1">
          <mxGeometry x="346.25" y="205" width="40" height="40" as="geometry" />
        </mxCell>
        <mxCell id="rNuUCdMT_7H_DOtV4EFp-34" value="&lt;font face=&quot;Lucida Console&quot;&gt;Red port&lt;/font&gt;" style="text;html=1;align=center;verticalAlign=middle;whiteSpace=wrap;rounded=0;" parent="1" vertex="1">
          <mxGeometry x="480" y="317" width="40" height="30" as="geometry" />
        </mxCell>
        <mxCell id="rNuUCdMT_7H_DOtV4EFp-35" value="&lt;font&gt;Black port&lt;/font&gt;" style="text;html=1;align=center;verticalAlign=middle;whiteSpace=wrap;rounded=0;spacing=2;spacingLeft=0;fontFamily=Lucida Console;fontStyle=0" parent="1" vertex="1">
          <mxGeometry x="112" y="183" width="48" height="30" as="geometry" />
        </mxCell>
        <mxCell id="rNuUCdMT_7H_DOtV4EFp-36" value="&lt;font&gt;Internet router&lt;/font&gt;" style="text;html=1;align=center;verticalAlign=middle;whiteSpace=wrap;rounded=0;spacing=2;spacingLeft=0;fontFamily=Lucida Console;fontStyle=0" parent="1" vertex="1">
          <mxGeometry x="28" y="246" width="88" height="30" as="geometry" />
        </mxCell>
        <mxCell id="rNuUCdMT_7H_DOtV4EFp-37" value="&lt;font&gt;Internet&lt;/font&gt;" style="text;html=1;align=center;verticalAlign=middle;whiteSpace=wrap;rounded=0;spacing=2;spacingLeft=0;fontFamily=Lucida Console;fontStyle=0" parent="1" vertex="1">
          <mxGeometry x="25" y="120.99999999999999" width="88" height="30" as="geometry" />
        </mxCell>
        <mxCell id="rNuUCdMT_7H_DOtV4EFp-39" value="&lt;font&gt;C&lt;/font&gt;" style="text;html=1;align=center;verticalAlign=middle;whiteSpace=wrap;rounded=0;spacing=2;spacingLeft=0;fontFamily=Lucida Console;fontStyle=0" parent="1" vertex="1">
          <mxGeometry x="337.8" y="185" width="107" height="30" as="geometry" />
        </mxCell>
        <mxCell id="rNuUCdMT_7H_DOtV4EFp-40" value="B" style="text;html=1;align=center;verticalAlign=middle;whiteSpace=wrap;rounded=0;spacing=2;spacingLeft=0;fontFamily=Lucida Console;fontStyle=0" parent="1" vertex="1">
          <mxGeometry x="266.5" y="295" width="107" height="30" as="geometry" />
        </mxCell>
        <mxCell id="rNuUCdMT_7H_DOtV4EFp-42" value="&lt;font face=&quot;Lucida Console&quot;&gt;Local switch&lt;/font&gt;" style="text;html=1;align=center;verticalAlign=middle;whiteSpace=wrap;rounded=0;" parent="1" vertex="1">
          <mxGeometry x="527" y="386" width="60" height="30" as="geometry" />
        </mxCell>
        <mxCell id="rNuUCdMT_7H_DOtV4EFp-43" value="&lt;font face=&quot;Lucida Console&quot;&gt;Workstation on LAN&lt;/font&gt;" style="text;html=1;align=center;verticalAlign=middle;whiteSpace=wrap;rounded=0;" parent="1" vertex="1">
          <mxGeometry x="516" y="200" width="83.75" height="30" as="geometry" />
        </mxCell>
        <mxCell id="rNuUCdMT_7H_DOtV4EFp-48" value="" style="endArrow=none;html=1;rounded=0;strokeWidth=2;" parent="1" edge="1">
          <mxGeometry width="50" height="50" relative="1" as="geometry">
            <mxPoint x="79.99999999999997" y="223.25" as="sourcePoint" />
            <mxPoint x="190" y="223" as="targetPoint" />
          </mxGeometry>
        </mxCell>
        <mxCell id="rNuUCdMT_7H_DOtV4EFp-44" value="" style="rounded=0;whiteSpace=wrap;html=1;shadow=1;" parent="1" vertex="1">
          <mxGeometry x="181" y="185" width="130" height="80" as="geometry" />
        </mxCell>
        <mxCell id="rNuUCdMT_7H_DOtV4EFp-45" value="" style="sketch=0;points=[[0.015,0.015,0],[0.985,0.015,0],[0.985,0.985,0],[0.015,0.985,0],[0.25,0,0],[0.5,0,0],[0.75,0,0],[1,0.25,0],[1,0.5,0],[1,0.75,0],[0.75,1,0],[0.5,1,0],[0.25,1,0],[0,0.75,0],[0,0.5,0],[0,0.25,0]];verticalLabelPosition=bottom;html=1;verticalAlign=top;aspect=fixed;align=center;pointerEvents=1;shape=mxgraph.cisco19.rect;prIcon=firewall;fillColor=#FAFAFA;strokeColor=#2072B8;" parent="1" vertex="1">
          <mxGeometry x="251" y="207.5" width="44.8" height="35" as="geometry" />
        </mxCell>
        <mxCell id="rNuUCdMT_7H_DOtV4EFp-46" value="" style="sketch=0;points=[[0.5,0,0],[1,0.5,0],[0.5,1,0],[0,0.5,0],[0.145,0.145,0],[0.8555,0.145,0],[0.855,0.8555,0],[0.145,0.855,0]];verticalLabelPosition=bottom;html=1;verticalAlign=top;aspect=fixed;align=center;pointerEvents=1;shape=mxgraph.cisco19.rect;prIcon=router;fillColor=#FAFAFA;strokeColor=#2072B8;" parent="1" vertex="1">
          <mxGeometry x="197.25" y="205" width="40" height="40" as="geometry" />
        </mxCell>
        <mxCell id="rNuUCdMT_7H_DOtV4EFp-47" value="A" style="text;html=1;align=center;verticalAlign=middle;whiteSpace=wrap;rounded=0;spacing=2;spacingLeft=0;fontFamily=Lucida Console;fontStyle=0" parent="1" vertex="1">
          <mxGeometry x="188.8" y="185" width="107" height="30" as="geometry" />
        </mxCell>
        <mxCell id="rNuUCdMT_7H_DOtV4EFp-20" value="" style="sketch=0;points=[[0.5,0,0],[1,0.5,0],[0.5,1,0],[0,0.5,0],[0.145,0.145,0],[0.8555,0.145,0],[0.855,0.8555,0],[0.145,0.855,0]];verticalLabelPosition=bottom;html=1;verticalAlign=top;aspect=fixed;align=center;pointerEvents=1;shape=mxgraph.cisco19.rect;prIcon=router;fillColor=#FAFAFA;strokeColor=#2072B8;" parent="1" vertex="1">
          <mxGeometry x="50" y="204" width="40" height="40" as="geometry" />
        </mxCell>
        <mxCell id="rNuUCdMT_7H_DOtV4EFp-8" value="" style="html=1;verticalLabelPosition=bottom;verticalAlign=top;outlineConnect=0;shadow=0;dashed=0;shape=mxgraph.rack.hpe_aruba.switches.rj45_sfp;" parent="1" vertex="1">
          <mxGeometry x="149" y="212" width="24" height="18" as="geometry" />
        </mxCell>
        <mxCell id="rNuUCdMT_7H_DOtV4EFp-50" value="" style="endArrow=none;html=1;rounded=0;entryX=0.002;entryY=0.415;entryDx=0;entryDy=0;entryPerimeter=0;strokeWidth=2;" parent="1" edge="1">
          <mxGeometry width="50" height="50" relative="1" as="geometry">
            <mxPoint x="432" y="360.25" as="sourcePoint" />
            <mxPoint x="499.9" y="359.9999999999998" as="targetPoint" />
          </mxGeometry>
        </mxCell>
        <mxCell id="rNuUCdMT_7H_DOtV4EFp-7" value="" style="html=1;verticalLabelPosition=bottom;verticalAlign=top;outlineConnect=0;shadow=0;dashed=0;shape=mxgraph.rack.hpe_aruba.switches.rj45_sfp;" parent="1" vertex="1">
          <mxGeometry x="470" y="350" width="24" height="18" as="geometry" />
        </mxCell>
        <mxCell id="rNuUCdMT_7H_DOtV4EFp-51" value="" style="endArrow=none;html=1;rounded=0;strokeWidth=2;" parent="1" edge="1">
          <mxGeometry width="50" height="50" relative="1" as="geometry">
            <mxPoint x="556" y="380.25" as="sourcePoint" />
            <mxPoint x="556" y="240" as="targetPoint" />
          </mxGeometry>
        </mxCell>
        <mxCell id="rNuUCdMT_7H_DOtV4EFp-6" value="" style="shape=mxgraph.cisco.computers_and_peripherals.pc;html=1;pointerEvents=1;dashed=0;fillColor=#2072B8;strokeColor=#ffffff;strokeWidth=2;verticalLabelPosition=bottom;verticalAlign=top;align=center;outlineConnect=0;" parent="1" vertex="1">
          <mxGeometry x="530" y="230" width="58" height="50" as="geometry" />
        </mxCell>
        <mxCell id="rNuUCdMT_7H_DOtV4EFp-13" value="" style="sketch=0;points=[[0.015,0.015,0],[0.985,0.015,0],[0.985,0.985,0],[0.015,0.985,0],[0.25,0,0],[0.5,0,0],[0.75,0,0],[1,0.25,0],[1,0.5,0],[1,0.75,0],[0.75,1,0],[0.5,1,0],[0.25,1,0],[0,0.75,0],[0,0.5,0],[0,0.25,0]];verticalLabelPosition=bottom;html=1;verticalAlign=top;aspect=fixed;align=center;pointerEvents=1;shape=mxgraph.cisco19.rect;prIcon=l3_switch;fillColor=#FAFAFA;strokeColor=#2072B8;" parent="1" vertex="1">
          <mxGeometry x="531" y="335" width="50" height="50" as="geometry" />
        </mxCell>
        <mxCell id="aiWWjVIApAakwn2tHco_-1" value="" style="rounded=0;whiteSpace=wrap;html=1;shadow=0;" vertex="1" parent="1">
          <mxGeometry x="341" y="769" width="90" height="80" as="geometry" />
        </mxCell>
        <mxCell id="aiWWjVIApAakwn2tHco_-2" value="" style="rounded=0;whiteSpace=wrap;html=1;" vertex="1" parent="1">
          <mxGeometry x="211" y="639" width="320" height="240" as="geometry" />
        </mxCell>
        <mxCell id="aiWWjVIApAakwn2tHco_-3" value="" style="endArrow=none;html=1;rounded=0;strokeWidth=2;" edge="1" parent="1">
          <mxGeometry width="50" height="50" relative="1" as="geometry">
            <mxPoint x="531" y="838.25" as="sourcePoint" />
            <mxPoint x="580" y="838" as="targetPoint" />
          </mxGeometry>
        </mxCell>
        <mxCell id="aiWWjVIApAakwn2tHco_-4" value="" style="endArrow=none;html=1;rounded=0;strokeWidth=2;" edge="1" parent="1">
          <mxGeometry width="50" height="50" relative="1" as="geometry">
            <mxPoint x="484" y="839" as="sourcePoint" />
            <mxPoint x="483.53" y="734" as="targetPoint" />
          </mxGeometry>
        </mxCell>
        <mxCell id="aiWWjVIApAakwn2tHco_-5" value="" style="endArrow=none;html=1;rounded=0;strokeWidth=2;" edge="1" parent="1">
          <mxGeometry width="50" height="50" relative="1" as="geometry">
            <mxPoint x="445.72999999999996" y="821.5" as="sourcePoint" />
            <mxPoint x="445.72999999999996" y="686.5" as="targetPoint" />
          </mxGeometry>
        </mxCell>
        <mxCell id="aiWWjVIApAakwn2tHco_-6" value="" style="endArrow=none;html=1;rounded=0;entryX=0.002;entryY=0.415;entryDx=0;entryDy=0;entryPerimeter=0;strokeWidth=2;" edge="1" parent="1">
          <mxGeometry width="50" height="50" relative="1" as="geometry">
            <mxPoint x="378.29999999999995" y="820.98" as="sourcePoint" />
            <mxPoint x="446.19999999999993" y="820.7299999999998" as="targetPoint" />
          </mxGeometry>
        </mxCell>
        <mxCell id="aiWWjVIApAakwn2tHco_-7" value="" style="endArrow=none;html=1;rounded=0;entryX=0.002;entryY=0.415;entryDx=0;entryDy=0;entryPerimeter=0;strokeWidth=2;" edge="1" parent="1">
          <mxGeometry width="50" height="50" relative="1" as="geometry">
            <mxPoint x="291.84999999999997" y="821.25" as="sourcePoint" />
            <mxPoint x="359.74999999999994" y="820.9999999999998" as="targetPoint" />
          </mxGeometry>
        </mxCell>
        <mxCell id="aiWWjVIApAakwn2tHco_-8" value="" style="endArrow=none;html=1;rounded=0;entryX=0.002;entryY=0.415;entryDx=0;entryDy=0;entryPerimeter=0;strokeWidth=2;" edge="1" parent="1">
          <mxGeometry width="50" height="50" relative="1" as="geometry">
            <mxPoint x="332.09999999999997" y="703.25" as="sourcePoint" />
            <mxPoint x="399.99999999999994" y="702.9999999999998" as="targetPoint" />
          </mxGeometry>
        </mxCell>
        <mxCell id="aiWWjVIApAakwn2tHco_-9" value="" style="endArrow=none;html=1;rounded=0;strokeWidth=2;" edge="1" parent="1">
          <mxGeometry width="50" height="50" relative="1" as="geometry">
            <mxPoint x="292.68999999999994" y="821.5" as="sourcePoint" />
            <mxPoint x="292.68999999999994" y="686.5" as="targetPoint" />
          </mxGeometry>
        </mxCell>
        <mxCell id="aiWWjVIApAakwn2tHco_-10" value="" style="endArrow=none;html=1;rounded=0;strokeWidth=2;" edge="1" parent="1">
          <mxGeometry width="50" height="50" relative="1" as="geometry">
            <mxPoint x="75.10000000000002" y="591" as="sourcePoint" />
            <mxPoint x="75" y="549" as="targetPoint" />
          </mxGeometry>
        </mxCell>
        <mxCell id="aiWWjVIApAakwn2tHco_-11" value="" style="rounded=0;whiteSpace=wrap;html=1;shadow=1;" vertex="1" parent="1">
          <mxGeometry x="326" y="779" width="90" height="80" as="geometry" />
        </mxCell>
        <mxCell id="aiWWjVIApAakwn2tHco_-12" value="" style="sketch=0;pointerEvents=1;shadow=0;dashed=0;html=1;strokeColor=none;labelPosition=center;verticalLabelPosition=bottom;verticalAlign=top;outlineConnect=0;align=center;shape=mxgraph.office.security.lock_protected;fillColor=#2072B8;" vertex="1" parent="1">
          <mxGeometry x="359.75" y="804" width="22.5" height="30" as="geometry" />
        </mxCell>
        <mxCell id="aiWWjVIApAakwn2tHco_-13" value="" style="verticalLabelPosition=bottom;html=1;verticalAlign=top;align=center;strokeColor=none;fillColor=#2072B8;shape=mxgraph.azure.cloud;" vertex="1" parent="1">
          <mxGeometry x="49" y="523" width="50" height="32.5" as="geometry" />
        </mxCell>
        <mxCell id="aiWWjVIApAakwn2tHco_-14" value="" style="rounded=0;whiteSpace=wrap;html=1;shadow=1;" vertex="1" parent="1">
          <mxGeometry x="381" y="664" width="130" height="80" as="geometry" />
        </mxCell>
        <mxCell id="aiWWjVIApAakwn2tHco_-15" value="" style="sketch=0;points=[[0.015,0.015,0],[0.985,0.015,0],[0.985,0.985,0],[0.015,0.985,0],[0.25,0,0],[0.5,0,0],[0.75,0,0],[1,0.25,0],[1,0.5,0],[1,0.75,0],[0.75,1,0],[0.5,1,0],[0.25,1,0],[0,0.75,0],[0,0.5,0],[0,0.25,0]];verticalLabelPosition=bottom;html=1;verticalAlign=top;aspect=fixed;align=center;pointerEvents=1;shape=mxgraph.cisco19.rect;prIcon=firewall;fillColor=#FAFAFA;strokeColor=#2072B8;" vertex="1" parent="1">
          <mxGeometry x="451" y="686.5" width="44.8" height="35" as="geometry" />
        </mxCell>
        <mxCell id="aiWWjVIApAakwn2tHco_-16" value="" style="sketch=0;points=[[0.5,0,0],[1,0.5,0],[0.5,1,0],[0,0.5,0],[0.145,0.145,0],[0.8555,0.145,0],[0.855,0.8555,0],[0.145,0.855,0]];verticalLabelPosition=bottom;html=1;verticalAlign=top;aspect=fixed;align=center;pointerEvents=1;shape=mxgraph.cisco19.rect;prIcon=router;fillColor=#FAFAFA;strokeColor=#2072B8;" vertex="1" parent="1">
          <mxGeometry x="397.25" y="684" width="40" height="40" as="geometry" />
        </mxCell>
        <mxCell id="aiWWjVIApAakwn2tHco_-17" value="&lt;font face=&quot;Lucida Console&quot;&gt;Red port&lt;/font&gt;" style="text;html=1;align=center;verticalAlign=middle;whiteSpace=wrap;rounded=0;" vertex="1" parent="1">
          <mxGeometry x="531" y="796" width="40" height="30" as="geometry" />
        </mxCell>
        <mxCell id="aiWWjVIApAakwn2tHco_-18" value="&lt;font&gt;Black port&lt;/font&gt;" style="text;html=1;align=center;verticalAlign=middle;whiteSpace=wrap;rounded=0;spacing=2;spacingLeft=0;fontFamily=Lucida Console;fontStyle=0" vertex="1" parent="1">
          <mxGeometry x="160" y="710" width="48" height="30" as="geometry" />
        </mxCell>
        <mxCell id="aiWWjVIApAakwn2tHco_-19" value="&lt;font&gt;Internet router&lt;/font&gt;" style="text;html=1;align=center;verticalAlign=middle;whiteSpace=wrap;rounded=0;spacing=2;spacingLeft=0;fontFamily=Lucida Console;fontStyle=0" vertex="1" parent="1">
          <mxGeometry x="33" y="625" width="88" height="30" as="geometry" />
        </mxCell>
        <mxCell id="aiWWjVIApAakwn2tHco_-20" value="&lt;font&gt;Internet&lt;/font&gt;" style="text;html=1;align=center;verticalAlign=middle;whiteSpace=wrap;rounded=0;spacing=2;spacingLeft=0;fontFamily=Lucida Console;fontStyle=0" vertex="1" parent="1">
          <mxGeometry x="30" y="500" width="88" height="30" as="geometry" />
        </mxCell>
        <mxCell id="aiWWjVIApAakwn2tHco_-21" value="&lt;font&gt;C&lt;/font&gt;" style="text;html=1;align=center;verticalAlign=middle;whiteSpace=wrap;rounded=0;spacing=2;spacingLeft=0;fontFamily=Lucida Console;fontStyle=0" vertex="1" parent="1">
          <mxGeometry x="388.8" y="664" width="107" height="30" as="geometry" />
        </mxCell>
        <mxCell id="aiWWjVIApAakwn2tHco_-22" value="B" style="text;html=1;align=center;verticalAlign=middle;whiteSpace=wrap;rounded=0;spacing=2;spacingLeft=0;fontFamily=Lucida Console;fontStyle=0" vertex="1" parent="1">
          <mxGeometry x="317.5" y="774" width="107" height="30" as="geometry" />
        </mxCell>
        <mxCell id="aiWWjVIApAakwn2tHco_-24" value="&lt;font face=&quot;Lucida Console&quot;&gt;Workstation on LAN&lt;/font&gt;" style="text;html=1;align=center;verticalAlign=middle;whiteSpace=wrap;rounded=0;" vertex="1" parent="1">
          <mxGeometry x="490" y="510" width="83.75" height="30" as="geometry" />
        </mxCell>
        <mxCell id="aiWWjVIApAakwn2tHco_-25" value="" style="endArrow=none;html=1;rounded=0;strokeWidth=2;" edge="1" parent="1">
          <mxGeometry width="50" height="50" relative="1" as="geometry">
            <mxPoint x="88" y="601" as="sourcePoint" />
            <mxPoint x="128" y="601" as="targetPoint" />
          </mxGeometry>
        </mxCell>
        <mxCell id="aiWWjVIApAakwn2tHco_-26" value="" style="rounded=0;whiteSpace=wrap;html=1;shadow=1;" vertex="1" parent="1">
          <mxGeometry x="232" y="664" width="130" height="80" as="geometry" />
        </mxCell>
        <mxCell id="aiWWjVIApAakwn2tHco_-27" value="" style="sketch=0;points=[[0.015,0.015,0],[0.985,0.015,0],[0.985,0.985,0],[0.015,0.985,0],[0.25,0,0],[0.5,0,0],[0.75,0,0],[1,0.25,0],[1,0.5,0],[1,0.75,0],[0.75,1,0],[0.5,1,0],[0.25,1,0],[0,0.75,0],[0,0.5,0],[0,0.25,0]];verticalLabelPosition=bottom;html=1;verticalAlign=top;aspect=fixed;align=center;pointerEvents=1;shape=mxgraph.cisco19.rect;prIcon=firewall;fillColor=#FAFAFA;strokeColor=#2072B8;" vertex="1" parent="1">
          <mxGeometry x="302" y="686.5" width="44.8" height="35" as="geometry" />
        </mxCell>
        <mxCell id="aiWWjVIApAakwn2tHco_-28" value="" style="sketch=0;points=[[0.5,0,0],[1,0.5,0],[0.5,1,0],[0,0.5,0],[0.145,0.145,0],[0.8555,0.145,0],[0.855,0.8555,0],[0.145,0.855,0]];verticalLabelPosition=bottom;html=1;verticalAlign=top;aspect=fixed;align=center;pointerEvents=1;shape=mxgraph.cisco19.rect;prIcon=router;fillColor=#FAFAFA;strokeColor=#2072B8;" vertex="1" parent="1">
          <mxGeometry x="248.25" y="684" width="40" height="40" as="geometry" />
        </mxCell>
        <mxCell id="aiWWjVIApAakwn2tHco_-29" value="A" style="text;html=1;align=center;verticalAlign=middle;whiteSpace=wrap;rounded=0;spacing=2;spacingLeft=0;fontFamily=Lucida Console;fontStyle=0" vertex="1" parent="1">
          <mxGeometry x="239.8" y="664" width="107" height="30" as="geometry" />
        </mxCell>
        <mxCell id="aiWWjVIApAakwn2tHco_-30" value="" style="sketch=0;points=[[0.5,0,0],[1,0.5,0],[0.5,1,0],[0,0.5,0],[0.145,0.145,0],[0.8555,0.145,0],[0.855,0.8555,0],[0.145,0.855,0]];verticalLabelPosition=bottom;html=1;verticalAlign=top;aspect=fixed;align=center;pointerEvents=1;shape=mxgraph.cisco19.rect;prIcon=router;fillColor=#FAFAFA;strokeColor=#2072B8;" vertex="1" parent="1">
          <mxGeometry x="55" y="582" width="40" height="40" as="geometry" />
        </mxCell>
        <mxCell id="aiWWjVIApAakwn2tHco_-32" value="" style="endArrow=none;html=1;rounded=0;strokeWidth=2;" edge="1" parent="1" target="aiWWjVIApAakwn2tHco_-33">
          <mxGeometry width="50" height="50" relative="1" as="geometry">
            <mxPoint x="483" y="838" as="sourcePoint" />
            <mxPoint x="550.9" y="838.9999999999998" as="targetPoint" />
          </mxGeometry>
        </mxCell>
        <mxCell id="aiWWjVIApAakwn2tHco_-33" value="" style="html=1;verticalLabelPosition=bottom;verticalAlign=top;outlineConnect=0;shadow=0;dashed=0;shape=mxgraph.rack.hpe_aruba.switches.rj45_sfp;" vertex="1" parent="1">
          <mxGeometry x="521" y="829" width="24" height="18" as="geometry" />
        </mxCell>
        <mxCell id="aiWWjVIApAakwn2tHco_-34" value="" style="endArrow=none;html=1;rounded=0;strokeWidth=2;exitX=1;exitY=0.5;exitDx=0;exitDy=0;exitPerimeter=0;" edge="1" parent="1" source="aiWWjVIApAakwn2tHco_-36">
          <mxGeometry width="50" height="50" relative="1" as="geometry">
            <mxPoint x="739" y="680.25" as="sourcePoint" />
            <mxPoint x="520" y="569" as="targetPoint" />
          </mxGeometry>
        </mxCell>
        <mxCell id="aiWWjVIApAakwn2tHco_-35" value="" style="shape=mxgraph.cisco.computers_and_peripherals.pc;html=1;pointerEvents=1;dashed=0;fillColor=#2072B8;strokeColor=#ffffff;strokeWidth=2;verticalLabelPosition=bottom;verticalAlign=top;align=center;outlineConnect=0;" vertex="1" parent="1">
          <mxGeometry x="498" y="543" width="58" height="50" as="geometry" />
        </mxCell>
        <mxCell id="aiWWjVIApAakwn2tHco_-39" value="" style="endArrow=none;html=1;rounded=0;strokeWidth=2;" edge="1" parent="1">
          <mxGeometry width="50" height="50" relative="1" as="geometry">
            <mxPoint x="150.99999999999997" y="601.25" as="sourcePoint" />
            <mxPoint x="580" y="600" as="targetPoint" />
          </mxGeometry>
        </mxCell>
        <mxCell id="aiWWjVIApAakwn2tHco_-38" value="" style="sketch=0;points=[[0.015,0.015,0],[0.985,0.015,0],[0.985,0.985,0],[0.015,0.985,0],[0.25,0,0],[0.5,0,0],[0.75,0,0],[1,0.25,0],[1,0.5,0],[1,0.75,0],[0.75,1,0],[0.5,1,0],[0.25,1,0],[0,0.75,0],[0,0.5,0],[0,0.25,0]];verticalLabelPosition=bottom;html=1;verticalAlign=top;aspect=fixed;align=center;pointerEvents=1;shape=mxgraph.cisco19.rect;prIcon=firewall;fillColor=#FAFAFA;strokeColor=#2072B8;shadow=0;" vertex="1" parent="1">
          <mxGeometry x="110" y="584" width="44.8" height="35" as="geometry" />
        </mxCell>
        <mxCell id="aiWWjVIApAakwn2tHco_-41" value="" style="endArrow=none;html=1;rounded=0;strokeWidth=2;" edge="1" parent="1">
          <mxGeometry width="50" height="50" relative="1" as="geometry">
            <mxPoint x="190" y="702" as="sourcePoint" />
            <mxPoint x="189.99999999999994" y="595" as="targetPoint" />
          </mxGeometry>
        </mxCell>
        <mxCell id="aiWWjVIApAakwn2tHco_-42" value="" style="endArrow=none;html=1;rounded=0;strokeWidth=2;entryX=0;entryY=0.459;entryDx=0;entryDy=0;entryPerimeter=0;" edge="1" parent="1" target="aiWWjVIApAakwn2tHco_-26">
          <mxGeometry width="50" height="50" relative="1" as="geometry">
            <mxPoint x="189.99999999999997" y="701" as="sourcePoint" />
            <mxPoint x="219" y="701" as="targetPoint" />
          </mxGeometry>
        </mxCell>
        <mxCell id="aiWWjVIApAakwn2tHco_-31" value="" style="html=1;verticalLabelPosition=bottom;verticalAlign=top;outlineConnect=0;shadow=0;dashed=0;shape=mxgraph.rack.hpe_aruba.switches.rj45_sfp;" vertex="1" parent="1">
          <mxGeometry x="200" y="691" width="24" height="18" as="geometry" />
        </mxCell>
        <mxCell id="aiWWjVIApAakwn2tHco_-43" value="" style="endArrow=none;html=1;rounded=0;strokeWidth=2;" edge="1" parent="1">
          <mxGeometry width="50" height="50" relative="1" as="geometry">
            <mxPoint x="580.47" y="838" as="sourcePoint" />
            <mxPoint x="580" y="599" as="targetPoint" />
          </mxGeometry>
        </mxCell>
        <mxCell id="aiWWjVIApAakwn2tHco_-44" value="" style="endArrow=none;html=1;rounded=0;strokeWidth=2;" edge="1" parent="1">
          <mxGeometry width="50" height="50" relative="1" as="geometry">
            <mxPoint x="190" y="607" as="sourcePoint" />
            <mxPoint x="190" y="570" as="targetPoint" />
          </mxGeometry>
        </mxCell>
        <mxCell id="aiWWjVIApAakwn2tHco_-40" value="" style="sketch=0;points=[[0.5,0,0],[1,0.5,0],[0.5,1,0],[0,0.5,0],[0.145,0.145,0],[0.8555,0.145,0],[0.855,0.8555,0],[0.145,0.855,0]];verticalLabelPosition=bottom;html=1;verticalAlign=top;aspect=fixed;align=center;pointerEvents=1;shape=mxgraph.cisco19.rect;prIcon=router;fillColor=#FAFAFA;strokeColor=#2072B8;" vertex="1" parent="1">
          <mxGeometry x="170" y="581" width="40" height="40" as="geometry" />
        </mxCell>
        <mxCell id="aiWWjVIApAakwn2tHco_-45" value="" style="endArrow=none;html=1;rounded=0;strokeWidth=2;" edge="1" parent="1">
          <mxGeometry width="50" height="50" relative="1" as="geometry">
            <mxPoint x="188.99999999999997" y="570.25" as="sourcePoint" />
            <mxPoint x="340" y="569" as="targetPoint" />
          </mxGeometry>
        </mxCell>
        <mxCell id="aiWWjVIApAakwn2tHco_-23" value="&lt;font face=&quot;Lucida Console&quot;&gt;Local switch&lt;/font&gt;" style="text;html=1;align=center;verticalAlign=middle;whiteSpace=wrap;rounded=0;" vertex="1" parent="1">
          <mxGeometry x="331" y="512" width="60" height="30" as="geometry" />
        </mxCell>
        <mxCell id="aiWWjVIApAakwn2tHco_-36" value="" style="sketch=0;points=[[0.015,0.015,0],[0.985,0.015,0],[0.985,0.985,0],[0.015,0.985,0],[0.25,0,0],[0.5,0,0],[0.75,0,0],[1,0.25,0],[1,0.5,0],[1,0.75,0],[0.75,1,0],[0.5,1,0],[0.25,1,0],[0,0.75,0],[0,0.5,0],[0,0.25,0]];verticalLabelPosition=bottom;html=1;verticalAlign=top;aspect=fixed;align=center;pointerEvents=1;shape=mxgraph.cisco19.rect;prIcon=l3_switch;fillColor=#FAFAFA;strokeColor=#2072B8;" vertex="1" parent="1">
          <mxGeometry x="336" y="544" width="50" height="50" as="geometry" />
        </mxCell>
        <mxCell id="aiWWjVIApAakwn2tHco_-46" value="&lt;font face=&quot;Lucida Console&quot;&gt;Router&lt;/font&gt;" style="text;html=1;align=center;verticalAlign=middle;whiteSpace=wrap;rounded=0;" vertex="1" parent="1">
          <mxGeometry x="200" y="600" width="60" height="30" as="geometry" />
        </mxCell>
      </root>
    </mxGraphModel>
  </diagram>
</mxfile>
